<svg width="13" height="8" viewBox="0 0 13 8" fill="none" xmlns="http://www.w3.org/2000/svg">
<path d="M8.89317 3.43236C8.9615 2.93797 8.62911 2.38034 7.90155 1.77345C7.29957 1.2692 6.46306 0.875826 5.41789 0.60153L8.89317 3.43236ZM8.89317 3.43236C8.89133 3.44714 8.90425 3.46192 8.9301 3.47178M8.89317 3.43236L8.9301 3.47178M10.2902 2.772L10.2973 2.70729L10.2791 2.79921L10.2902 2.772ZM10.2902 2.772L10.2893 2.78049L10.2902 2.772ZM8.9301 3.47178C8.9578 3.48327 8.9892 3.48492 9.00951 3.4841C9.02982 3.48327 9.05937 3.47999 9.08522 3.46767C9.08984 3.46538 9.09444 3.46309 9.09903 3.46081L9.38847 3.50081C9.39802 3.43166 9.4025 3.36298 9.40221 3.29478C9.62742 3.15828 9.79448 3.02124 9.89956 2.88623L8.9301 3.47178ZM12.4885 5.99217C12.1616 6.33299 11.6926 6.64013 11.0943 6.90293C10.5016 7.16516 9.79979 7.37353 9.02797 7.5164C8.22655 7.66505 7.37712 7.7406 6.49999 7.7406C5.62286 7.7406 4.77343 7.66505 3.97201 7.51558C3.19829 7.37186 2.50397 7.16491 1.90568 6.90211L12.4885 5.99217ZM12.4885 5.99217C12.8277 5.63919 13.0018 5.25916 13 4.87528L12.4885 5.99217ZM12.0941 4.07153L12.0945 4.07188C12.3961 4.37319 12.5 4.64217 12.5 4.87528L12.5 4.87762C12.501 5.0984 12.4031 5.35948 12.128 5.6457L12.1276 5.64609C12.0706 5.70559 12.0072 5.76484 11.9374 5.82364C12.1317 5.54059 12.2443 5.22416 12.2443 4.87528C12.2443 4.527 12.1277 4.20761 11.9317 3.92313C11.9903 3.97229 12.0445 4.02182 12.0941 4.07153ZM0.755681 4.87528C0.755681 5.22292 0.867462 5.5382 1.06053 5.82034C0.99138 5.76216 0.928511 5.70356 0.871929 5.64481C0.597188 5.35849 0.50009 5.10145 0.5 4.87477C0.50041 4.62117 0.630787 4.31306 1.00128 3.98042C1.02226 3.96184 1.04384 3.94331 1.06602 3.92485C0.871019 4.20821 0.755681 4.52614 0.755681 4.87528ZM5.0582 1.43643C4.97771 1.53243 4.87986 1.62921 4.7639 1.72562C4.90242 1.50696 4.97379 1.26184 4.97974 1.00371L5.24158 1.07223L5.19337 1.21008C5.17059 1.27521 5.12887 1.35149 5.0582 1.43643ZM7.78299 2.3344C8.31673 2.82921 8.42461 3.17048 8.39788 3.36391L8.39784 3.3639L8.39703 3.37036C8.39302 3.40245 8.39204 3.43338 8.39357 3.46306C8.35155 3.4507 8.31298 3.43736 8.27814 3.42337L8.27725 3.42301C8.21552 3.39835 8.17357 3.37503 8.14663 3.3572C8.16159 3.05008 8.05657 2.75858 7.89503 2.49869C7.86084 2.44367 7.82343 2.38891 7.78299 2.3344ZM11.6554 3.59365C11.6553 3.59357 11.6553 3.59348 11.6552 3.5934L11.581 3.66777L11.6554 3.59365Z" stroke="white"/>
</svg>
